<?xml version="1.0" standalone="no"?>
<!DOCTYPE svg PUBLIC "-//W3C//DTD SVG 20010904//EN"
 "http://www.w3.org/TR/2001/REC-SVG-20010904/DTD/svg10.dtd">
<svg version="1.0" xmlns="http://www.w3.org/2000/svg"
 width="1280.000000pt" height="833.000000pt" viewBox="0 0 1280.000000 833.000000"
 preserveAspectRatio="xMidYMid meet">
<metadata>
Created by potrace 1.15, written by Peter Selinger 2001-2017
</metadata>
<g transform="translate(0.000000,833.000000) scale(0.100000,-0.100000)"
fill="#000000" stroke="none">
<path d="M6307 8178 c-181 -306 -393 -685 -565 -1008 -93 -177 -256 -561 -322
-762 -12 -38 -25 -68 -28 -68 -4 0 -41 30 -82 66 -280 244 -722 532 -1062 693
-172 81 -409 174 -418 164 -4 -4 -13 -57 -19 -118 -48 -478 -36 -943 34 -1290
13 -65 23 -121 21 -122 -1 -1 -56 21 -122 51 -170 76 -432 173 -773 286 -452
151 -832 262 -846 248 -11 -11 -35 -188 -35 -258 0 -128 33 -261 90 -368 58
-107 69 -116 255 -191 268 -108 493 -227 628 -333 20 -16 37 -28 37 -26 0 12
-102 263 -125 309 -23 45 -24 51 -8 44 10 -4 54 -20 98 -35 717 -250 1635
-696 2179 -1059 56 -37 106 -71 113 -74 8 -5 15 6 22 35 36 148 160 476 275
727 109 241 722 1341 746 1340 6 0 23 -28 225 -379 215 -374 448 -803 516
-952 81 -176 187 -447 244 -618 26 -80 50 -148 54 -152 4 -4 56 24 116 64 653
422 1377 768 2155 1029 96 33 179 59 185 59 5 0 -41 -102 -102 -227 -62 -126
-113 -231 -113 -236 0 -4 36 22 80 57 113 88 317 209 575 338 121 60 230 119
242 131 71 65 187 275 238 432 31 94 80 333 71 342 -8 8 -53 -3 -441 -109
-694 -188 -1170 -341 -1484 -475 -10 -5 -13 -2 -9 9 13 32 48 229 63 348 33
259 30 735 -7 1073 -11 102 -12 107 -32 101 -73 -21 -325 -129 -461 -196 -371
-186 -704 -406 -995 -657 -57 -50 -107 -87 -111 -83 -3 4 -25 61 -49 127 -107
301 -222 565 -358 815 -265 491 -586 1050 -603 1050 -4 0 -46 -64 -92 -142z"/>
<path d="M6376 5642 c-322 -531 -649 -1146 -774 -1453 -528 -1300 -439 -2246
260 -2774 112 -85 222 -147 371 -209 169 -71 165 -71 276 -29 253 94 457 227
633 411 460 483 531 1253 206 2227 -71 214 -177 480 -263 660 -89 188 -432
808 -600 1085 -87 144 -77 136 -109 82z"/>
<path d="M70 5482 c134 -111 233 -224 328 -378 136 -219 254 -511 338 -836
139 -539 470 -1083 888 -1460 345 -311 761 -550 1221 -702 227 -74 350 -104
645 -152 35 -6 34 -5 -48 76 -312 310 -495 750 -574 1380 -14 119 -18 671 -5
840 l8 106 -97 103 c-413 437 -1069 756 -1947 946 -203 44 -706 117 -787 115
-8 -1 5 -17 30 -38z"/>
<path d="M12605 5509 c-188 -22 -262 -32 -400 -55 -658 -109 -1250 -312 -1692
-581 -185 -112 -310 -210 -471 -370 l-154 -152 6 -38 c24 -151 32 -501 16
-728 -49 -692 -234 -1192 -567 -1535 -51 -52 -91 -95 -89 -97 6 -6 303 49 409
76 523 135 1005 378 1387 699 125 105 337 323 429 442 263 338 466 746 557
1118 85 349 252 722 423 949 58 76 181 202 251 256 l35 27 -35 -1 c-19 -1 -66
-5 -105 -10z"/>
<path d="M3112 4693 c73 -146 86 -251 69 -563 -32 -588 -17 -862 65 -1197 109
-446 326 -850 603 -1123 228 -224 481 -360 799 -427 115 -25 147 -27 347 -27
192 -1 235 2 338 23 64 13 117 24 117 26 0 2 -36 38 -80 80 -233 227 -367 543
-426 1000 -23 183 -22 539 2 750 26 224 25 236 -18 327 -51 107 -88 158 -193
267 -279 289 -786 573 -1454 812 -176 63 -175 63 -169 52z"/>
<path d="M9485 4641 c-940 -343 -1525 -740 -1670 -1134 -17 -46 -17 -54 1
-195 29 -223 27 -734 -4 -919 -67 -408 -187 -675 -403 -897 -48 -49 -87 -91
-86 -92 1 -1 52 -12 112 -24 154 -31 409 -38 566 -16 599 84 1021 412 1325
1031 219 446 299 878 273 1470 -28 639 -26 662 59 828 6 12 -8 8 -173 -52z"/>
<path d="M870 2929 c-142 -18 -341 -63 -468 -104 -160 -53 -274 -112 -350
-181 l-56 -50 80 -68 c174 -149 396 -272 668 -370 15 -5 2 -18 -70 -67 -48
-33 -126 -93 -172 -132 -81 -68 -242 -234 -242 -249 0 -4 15 -5 33 -3 102 13
176 14 339 4 194 -10 437 -34 446 -43 3 -3 -42 -54 -99 -113 -105 -108 -193
-213 -263 -310 l-37 -52 53 -15 c669 -193 1362 -192 1933 3 49 17 94 31 98 31
5 0 -20 -33 -55 -73 -35 -40 -88 -103 -118 -140 -96 -120 -217 -181 -510 -258
l-45 -12 40 -14 c22 -8 103 -29 180 -48 706 -170 1512 -159 2441 33 l133 28
32 -44 c168 -234 442 -438 734 -547 133 -50 245 -81 390 -107 163 -29 513 -32
685 -5 535 85 950 315 1230 686 l25 33 115 -26 c265 -59 639 -117 965 -148
176 -17 792 -17 955 0 261 27 493 69 689 124 127 36 128 32 -24 74 -248 68
-314 109 -471 297 -68 81 -121 147 -118 147 4 0 69 -20 145 -45 476 -153 1009
-175 1567 -65 115 22 340 78 358 88 22 12 -133 208 -299 378 l-98 102 43 6
c215 31 675 50 756 32 20 -5 32 -4 32 3 0 5 -51 61 -112 124 -111 111 -258
233 -345 284 -25 14 -41 29 -36 33 4 5 53 25 108 45 196 72 416 201 570 332
l78 67 -48 43 c-95 87 -233 154 -435 212 -111 32 -330 74 -441 86 l-67 6 -38
-62 c-93 -154 -392 -466 -624 -652 -291 -234 -473 -336 -766 -433 -330 -109
-761 -168 -981 -134 -81 13 -86 13 -96 -6 -19 -35 -111 -125 -192 -191 -364
-292 -833 -477 -1347 -533 -128 -13 -392 -13 -443 1 -37 10 -41 9 -54 -12 -95
-152 -354 -248 -756 -281 -119 -10 -164 -9 -300 6 -368 40 -638 116 -766 217
-36 29 -39 29 -170 29 -326 0 -628 51 -909 151 -205 74 -468 222 -635 359 -85
70 -218 208 -239 248 l-15 30 -68 -15 c-52 -11 -105 -13 -223 -9 -256 11 -465
45 -690 113 -328 99 -484 179 -760 388 -288 219 -619 555 -724 738 -31 52 -28
51 -146 36z"/>
</g>
</svg>
