<?xml version="1.0" standalone="no"?><!DOCTYPE svg PUBLIC "-//W3C//DTD SVG 1.1//EN" "http://www.w3.org/Graphics/SVG/1.1/DTD/svg11.dtd"><svg class="icon" width="200px" height="193.03px" viewBox="0 0 1061 1024" version="1.1" xmlns="http://www.w3.org/2000/svg"><path fill="#EBEDFA" d="M858.123139 0.041415H216.64027a61.612475 61.612475 0 0 0-63.096313 59.929316v463.488813a61.612475 61.612475 0 0 0 63.096313 59.929316h641.482869a61.612475 61.612475 0 0 0 63.096312-59.929316V59.970731A61.678916 61.678916 0 0 0 858.123139 0.041415zM616.54554 103.422807a60.128638 60.128638 0 1 1-63.229193 60.062197 61.701062 61.701062 0 0 1 63.229193-60.062197zM216.396655 503.704573s51.712843-286.602099 171.970118-286.602099c117.798977 0 147.830076 200.362352 230.747799 200.362352 52.310807 0 46.906981-90.447645 129.868999-90.447645 59.508526 0 97.446043 176.576658 97.446042 176.576658H216.352361zM122.449811 869.70305v16.211478c-13.022335 1.085195-26.576193 2.613326-40.617282 3.853548v21.283102h-18.248986v-19.932145c-18.248986 1.085195-37.649607 2.613326-57.581753 3.587786l-2.613325-17.717462c20.995193-1.085195 41.170953-1.926774 59.929316-3.056262v-22.921967H12.158608l-4.429365-15.635661a168.315892 168.315892 0 0 0 21.836772-31.780698H0v-17.717462h38.402599c2.613326-6.068231 4.983036-12.158608 7.19772-18.248986l19.932145 3.299877c-1.926774 4.983036-3.853548 9.943926-6.068231 14.926962H126.901324v17.717462H51.137025a223.882283 223.882283 0 0 1-19.622089 31.271321H63.561396v-18.248986h18.248986v18.248986h43.119874v16.322212H81.810382v21.836773q21.548863-1.683159 40.617282-3.366318z m38.690508-18.248986a135.250678 135.250678 0 0 1-22.390443 60.527281l-13.81962-14.373292a116.359433 116.359433 0 0 0 19.334181-64.2258v-43.274902a260.513136 260.513136 0 0 0 80.769481-18.248986l12.712279 14.926962a262.307029 262.307029 0 0 1-75.166334 18.536895v28.657995h83.006311v17.407407H216.308068v59.929316h-19.068419v-59.929316z m53.329562 67.968615v103.912916H194.006212v-10.785505H53.595323v10.785505h-20.463669v-103.890769zM53.595323 995.319858h140.388742v-21.548864H53.595323z m0-37.649607h140.388742v-21.548864H53.595323z m243.482226-173.01102h198.435577v19.334181h-99.018467v18.514748q-0.642258 24.361511-3.587786 48.368672h124.908109v19.068419h-85.66393v96.405142a11.93714 11.93714 0 0 0 13.288096 13.553858h35.102723a18.248986 18.248986 0 0 0 14.639053-5.51456 82.209025 82.209025 0 0 0 7.81783-38.690508l18.78051 6.068231a91.710014 91.710014 0 0 1-12.42437 49.49816 35.434925 35.434925 0 0 1-25.13665 7.441334h-44.758739c-18.248986 0-27.063424-9.412402-27.063424-28.192912v-100.590892H390.005638a215.422194 215.422194 0 0 1-20.840165 62.542642 169.091031 169.091031 0 0 1-83.183485 69.939682l-11.073414-17.717462a157.973323 157.973323 0 0 0 79.307791-67.747146 203.750816 203.750816 0 0 0 15.192723-46.906982h-90.934875v-19.068418h94.234753a374.680033 374.680033 0 0 0 3.587786-48.368672v-18.315427h-79.329937z m351.270836 20.995193l17.717462 2.214683a152.813112 152.813112 0 0 1-7.197719 15.192724h72.951651v13.819621a110.335496 110.335496 0 0 1-35.102722 38.690508 308.505312 308.505312 0 0 0 63.295634 21.836772l-10.431156 14.926962a302.79143 302.79143 0 0 1-69.098103-26.819809 309.679094 309.679094 0 0 1-79.042028 27.351333l-8.858731-16.034303a284.719619 284.719619 0 0 0 71.866456-21.283102 157.552533 157.552533 0 0 1-27.905003-23.209876 189.266791 189.266791 0 0 1-28.192912 21.548864l-11.073414-14.373291a117.245307 117.245307 0 0 0 50.937704-53.728205z m32.04646 61.36886a100.369424 100.369424 0 0 0 31.492789-29.034491h-62.741963a13.044482 13.044482 0 0 0-2.613326 3.299877 189.931196 189.931196 0 0 0 33.8625 25.845348z m-54.724812 74.346901a629.434994 629.434994 0 0 1 105.861838 29.566015l-6.644049 16.012157a626.068676 626.068676 0 0 0-106.836297-30.673357z m28.657996-38.690508a353.463372 353.463372 0 0 1 59.442086 26.04467l-9.412402 14.373291a277.610487 277.610487 0 0 0-59.154177-27.063424z m133.213169-120.766652v241.267542h-19.289887v-11.339175h-186.808493v11.339175h-19.356327V781.979465z m-206.16482 212.255198h186.874933v-194.559883h-186.808493z m317.275455-131.840066v16.565827q-0.465083 14.528319-1.373103 29.034491h128.451602v116.027231h-19.932145v-96.405141h-111.088489a162.336248 162.336248 0 0 1-45.334556 95.630002l-15.192724-13.288096q43.540664-41.038072 44.293655-130.666285v-101.432471h20.17576v65.798225h80.968803v-73.527468h19.62209v73.527468h62.188292v19.068419z"  /></svg>