<?xml version="1.0" standalone="no"?><!DOCTYPE svg PUBLIC "-//W3C//DTD SVG 1.1//EN" "http://www.w3.org/Graphics/SVG/1.1/DTD/svg11.dtd"><svg height="1024" node-id="1" sillyvg="true" template-height="1024" template-width="1024" version="1.1" viewBox="0 0 1024 1024" width="1024" xmlns="http://www.w3.org/2000/svg" xmlns:xlink="http://www.w3.org/1999/xlink"><defs node-id="96"><linearGradient gradientUnits="objectBoundingBox" id="SVGID_1_" node-id="5" spreadMethod="pad" x1="512" x2="512" y1="523.1392" y2="-84.0197"><stop offset="0" stop-color="#92c1fc" stop-opacity="0.2"></stop><stop offset="0.45" stop-color="#187fc4" stop-opacity="0"></stop></linearGradient><linearGradient gradientUnits="objectBoundingBox" id="SVGID_00000146496662532750611500000012133588795536603043_" node-id="16" spreadMethod="pad" x1="107.2731" x2="223.298" y1="846.7269" y2="846.7269"><stop offset="0" stop-color="#91d3f8"></stop><stop offset="0.9944" stop-color="#5a91f7"></stop></linearGradient><linearGradient gradientUnits="objectBoundingBox" id="SVGID_00000000217660504177810930000005425116588877010362_" node-id="20" spreadMethod="pad" x1="240.0294" x2="364.2834" y1="846.2469" y2="846.2469"><stop offset="0" stop-color="#91d3f8"></stop><stop offset="0.9944" stop-color="#5a91f7"></stop></linearGradient><linearGradient gradientUnits="objectBoundingBox" id="SVGID_00000072977108289157155070000001558353445794883514_" node-id="24" spreadMethod="pad" x1="377.175" x2="499.3703" y1="845.973" y2="845.973"><stop offset="0" stop-color="#91d3f8"></stop><stop offset="0.9944" stop-color="#5a91f7"></stop></linearGradient><linearGradient gradientUnits="objectBoundingBox" id="SVGID_00000142868321218532599430000017062601677049024946_" node-id="28" spreadMethod="pad" x1="514.3195" x2="639.1212" y1="846.7269" y2="846.7269"><stop offset="0" stop-color="#91d3f8"></stop><stop offset="0.9944" stop-color="#5a91f7"></stop></linearGradient><linearGradient gradientUnits="objectBoundingBox" id="SVGID_00000004514736256508403760000013149044899524139936_" node-id="32" spreadMethod="pad" x1="651.0519" x2="776.6769" y1="845.9725" y2="845.9725"><stop offset="0" stop-color="#91d3f8"></stop><stop offset="0.9944" stop-color="#5a91f7"></stop></linearGradient><linearGradient gradientUnits="objectBoundingBox" id="SVGID_00000016771888697224620560000010653893427920040836_" node-id="36" spreadMethod="pad" x1="789.0197" x2="915.4669" y1="846.7952" y2="846.7952"><stop offset="0" stop-color="#91d3f8"></stop><stop offset="0.9944" stop-color="#5a91f7"></stop></linearGradient><linearGradient gradientUnits="objectBoundingBox" id="SVGID_00000128481643792877855470000017919215329722382006_" node-id="40" spreadMethod="pad" x1="115.5447" x2="115.5447" y1="419.5277" y2="272.2336"><stop offset="0.04376186" stop-color="#f1f7ff" stop-opacity="0"></stop><stop offset="0.8059" stop-color="#cbdeff"></stop></linearGradient><linearGradient gradientUnits="objectBoundingBox" id="SVGID_00000146493886936088224560000009110272432337681541_" node-id="44" spreadMethod="pad" x1="874.5083" x2="874.5083" y1="546.4379" y2="417.9511"><stop offset="0.04376186" stop-color="#f1f7ff" stop-opacity="0"></stop><stop offset="0.8059" stop-color="#cbdeff"></stop></linearGradient><linearGradient gradientUnits="objectBoundingBox" id="SVGID_00000115511053584433972600000007355025594677293496_" node-id="49" spreadMethod="pad" x1="664.1823" x2="696.7404" y1="308.8167" y2="94.1987"><stop offset="0.04376186" stop-color="#f1f7ff" stop-opacity="0"></stop><stop offset="0.8059" stop-color="#cbdeff"></stop></linearGradient><linearGradient gradientUnits="objectBoundingBox" id="SVGID_00000080928094842476077120000003973181004150226866_" node-id="53" spreadMethod="pad" x1="950.208" x2="972.7994" y1="326.8739" y2="253.1198"><stop offset="0.04376186" stop-color="#f1f7ff" stop-opacity="0"></stop><stop offset="0.8059" stop-color="#d9e9ff"></stop></linearGradient><linearGradient gradientUnits="objectBoundingBox" id="SVGID_00000141452051250592925940000003962840010299921562_" node-id="66" spreadMethod="pad" x1="320.5715" x2="705.1926" y1="306.3302" y2="655.9858"><stop offset="0" stop-color="#94ccff"></stop><stop offset="0.65" stop-color="#3b92f2"></stop></linearGradient><linearGradient gradientUnits="objectBoundingBox" id="SVGID_00000124876203763319338390000007004458688113141128_" node-id="70" spreadMethod="pad" x1="403.1872" x2="787.8083" y1="215.4529" y2="565.1084"><stop offset="0" stop-color="#94ccff"></stop><stop offset="0.65" stop-color="#3b92f2"></stop></linearGradient><linearGradient gradientUnits="objectBoundingBox" id="SVGID_00000153703965753760523250000018398503448779632301_" node-id="74" spreadMethod="pad" x1="302.9926" x2="687.6137" y1="325.667" y2="675.3225"><stop offset="0" stop-color="#94ccff"></stop><stop offset="0.65" stop-color="#3b92f2"></stop></linearGradient><linearGradient gradientUnits="objectBoundingBox" id="SVGID_00000067218818484699826210000000900558195021481137_" node-id="84" spreadMethod="pad" x1="294.8005" x2="689.2111" y1="293.5496" y2="652.9948"><stop offset="0" stop-color="#bdddff"></stop><stop offset="0.7579" stop-color="#63a6f9"></stop></linearGradient><linearGradient gradientUnits="objectBoundingBox" id="SVGID_00000079479117665244907390000001821681188062293923_" node-id="88" spreadMethod="pad" x1="550.9224" x2="639.1569" y1="400.9903" y2="400.9903"><stop offset="0" stop-color="#bdddff"></stop><stop offset="0.7579" stop-color="#63a6f9"></stop></linearGradient></defs><path d="M 1023.90 804.40 L 1023.60 814.90 L 1022.70 825.20 L 1021.30 835.50 L 1019.20 845.60 L 1016.70 855.60 L 1013.50 865.60 L 1009.90 875.30 L 1005.70 884.90 L 1001.00 894.50 L 995.80 903.90 L 990.00 913.30 L 983.70 922.60 L 977.10 931.40 L 970.00 940.20 L 962.40 948.80 L 954.30 957.40 L 945.70 965.80 L 936.50 974.20 L 925.30 983.60 L 913.50 992.70 L 901.10 1001.70 L 887.90 1010.50 L 874.00 1019.10 L 860.00 1027.00 L 845.50 1034.70 L 830.40 1042.20 L 814.60 1049.30 L 798.20 1056.20 L 781.90 1062.40 L 765.00 1068.40 L 747.60 1074.00 L 729.70 1079.20 L 711.20 1084.10 L 692.90 1088.50 L 674.10 1092.50 L 654.90 1096.00 L 635.30 1099.10 L 615.20 1101.80 L 595.20 1104.00 L 574.90 1105.70 L 554.30 1107.00 L 533.30 1107.70 L 512.00 1108.00 L 490.70 1107.70 L 469.70 1107.00 L 449.10 1105.70 L 428.80 1104.00 L 408.80 1101.80 L 388.70 1099.10 L 369.10 1096.00 L 349.90 1092.50 L 331.10 1088.50 L 312.80 1084.10 L 294.30 1079.20 L 276.40 1074.00 L 259.00 1068.40 L 242.10 1062.40 L 225.80 1056.20 L 209.40 1049.30 L 193.60 1042.20 L 178.50 1034.70 L 164.00 1027.00 L 150.00 1019.10 L 136.10 1010.50 L 122.90 1001.70 L 110.50 992.70 L 98.70 983.60 L 87.50 974.20 L 78.30 965.80 L 69.70 957.40 L 61.60 948.80 L 54.00 940.20 L 46.90 931.40 L 40.30 922.60 L 34.00 913.30 L 28.20 903.90 L 23.00 894.50 L 18.30 884.90 L 14.10 875.30 L 10.50 865.60 L 7.30 855.60 L 4.80 845.60 L 2.70 835.50 L 1.30 825.20 L 0.40 814.90 L 0.10 804.40 L 0.40 793.90 L 1.30 783.60 L 2.70 773.30 L 4.80 763.20 L 7.30 753.20 L 10.50 743.20 L 14.10 733.50 L 18.30 723.90 L 23.00 714.30 L 28.20 704.90 L 34.00 695.50 L 40.30 686.20 L 46.90 677.40 L 54.00 668.60 L 61.60 660.00 L 69.70 651.50 L 78.30 643.00 L 87.50 634.70 L 98.70 625.30 L 110.50 616.10 L 122.90 607.10 L 136.10 598.30 L 150.00 589.80 L 164.00 581.80 L 178.50 574.10 L 193.60 566.70 L 209.40 559.60 L 225.80 552.70 L 242.10 546.40 L 259.00 540.50 L 276.40 534.90 L 294.30 529.60 L 312.80 524.70 L 331.10 520.40 L 349.90 516.40 L 369.10 512.90 L 388.70 509.80 L 408.80 507.10 L 428.80 504.90 L 449.10 503.20 L 469.70 501.90 L 490.70 501.20 L 512.00 500.90 L 533.30 501.20 L 554.30 501.90 L 574.90 503.20 L 595.20 504.90 L 615.20 507.10 L 635.30 509.80 L 654.90 512.90 L 674.10 516.40 L 692.90 520.40 L 711.20 524.80 L 729.70 529.70 L 747.60 534.90 L 765.00 540.50 L 781.90 546.50 L 798.20 552.70 L 814.60 559.60 L 830.40 566.70 L 845.50 574.20 L 860.00 581.80 L 874.00 589.80 L 887.90 598.40 L 901.10 607.20 L 913.50 616.10 L 925.30 625.30 L 936.50 634.70 L 945.70 643.10 L 954.30 651.50 L 962.40 660.00 L 970.00 668.70 L 977.10 677.40 L 983.70 686.30 L 990.00 695.60 L 995.80 704.90 L 1001.00 714.40 L 1005.70 723.90 L 1009.90 733.50 L 1013.50 743.20 L 1016.70 753.20 L 1019.20 763.20 L 1021.30 773.40 L 1022.70 783.60 L 1023.60 793.90 L 1023.90 804.40 Z" fill="url(#SVGID_1_)" fill-rule="nonzero" node-id="197" stroke="none" target-height="607.1" target-width="1023.80005" target-x="0.1" target-y="500.9"></path><g node-id="279"><path d="M 236.50 354.50 L 208.00 354.30 L 207.00 353.90 L 205.50 352.40 L 204.90 350.20 L 205.50 348.00 L 207.00 346.50 L 208.00 346.10 L 237.70 346.10 L 238.70 346.50 L 240.20 348.00 L 240.80 350.20 L 240.60 351.40 L 240.20 352.40 L 238.70 353.90 L 236.50 354.50 Z" fill="#63a6f9" fill-rule="nonzero" group-id="1" node-id="201" stroke="none" target-height="8.399994" target-width="35.90001" target-x="204.9" target-y="346.1"></path><path d="M 218.30 363.70 L 218.50 335.50 L 218.90 334.40 L 220.50 332.80 L 222.80 332.20 L 224.00 332.40 L 226.00 333.50 L 227.10 335.50 L 227.30 336.70 L 227.10 364.90 L 226.70 366.00 L 225.10 367.60 L 222.80 368.20 L 221.60 368.00 L 219.60 366.90 L 218.50 364.90 L 218.30 363.70 Z" fill="#63a6f9" fill-rule="nonzero" group-id="1" node-id="203" stroke="none" target-height="36" target-width="9" target-x="218.3" target-y="332.2"></path></g><path d="M 807.60 368.20 L 805.10 367.90 L 802.90 366.90 L 801.00 365.50 L 799.60 363.60 L 798.50 360.60 L 798.50 357.20 L 799.60 354.20 L 801.00 352.30 L 802.90 350.90 L 805.90 349.80 L 809.30 349.80 L 812.30 350.90 L 814.20 352.30 L 815.60 354.20 L 816.70 357.20 L 816.90 358.90 L 816.30 362.20 L 815.60 363.60 L 814.20 365.50 L 812.30 366.90 L 810.10 367.90 L 807.60 368.20 Z M 807.60 354.80 L 806.00 355.10 L 804.70 356.00 L 803.80 357.30 L 803.50 358.90 L 803.80 360.50 L 804.70 361.80 L 806.00 362.70 L 807.60 363.00 L 809.20 362.70 L 810.50 361.80 L 811.40 360.50 L 811.70 358.90 L 811.40 357.30 L 810.50 356.00 L 809.20 355.10 L 807.60 354.80 Z" fill="#63a6f9" fill-rule="nonzero" node-id="206" stroke="none" target-height="18.400024" target-width="18.400024" target-x="798.5" target-y="349.8"></path><path d="M 232.10 611.20 L 228.90 610.90 L 225.90 610.10 L 223.10 608.80 L 220.60 607.00 L 218.50 604.90 L 216.70 602.40 L 215.40 599.60 L 214.60 596.60 L 214.30 593.40 L 214.60 590.20 L 215.40 587.20 L 216.70 584.40 L 218.50 581.90 L 220.60 579.80 L 223.10 578.00 L 225.90 576.70 L 228.90 575.90 L 232.10 575.60 L 235.30 575.90 L 238.30 576.70 L 241.10 578.00 L 243.60 579.80 L 245.70 581.90 L 247.50 584.40 L 248.80 587.20 L 249.60 590.20 L 249.90 593.40 L 249.60 596.60 L 248.80 599.60 L 247.50 602.40 L 245.70 604.90 L 243.60 607.00 L 241.10 608.80 L 238.30 610.10 L 235.30 610.90 L 232.10 611.20 Z M 232.10 585.50 L 230.00 585.80 L 228.10 586.60 L 226.50 587.80 L 225.30 589.40 L 224.50 591.30 L 224.20 593.40 L 224.50 595.50 L 225.30 597.40 L 226.50 599.00 L 228.10 600.20 L 230.00 601.00 L 232.10 601.30 L 234.20 601.00 L 236.10 600.20 L 237.70 599.00 L 238.90 597.40 L 239.70 595.50 L 240.00 593.40 L 239.70 591.30 L 238.90 589.40 L 237.70 587.80 L 236.10 586.60 L 234.20 585.80 L 232.10 585.50 Z" fill="#63a6f9" fill-rule="nonzero" node-id="208" stroke="none" target-height="35.600037" target-width="35.59999" target-x="214.3" target-y="575.6"></path><path d="M 790.10 566.30 L 789.80 568.70 L 788.90 570.90 L 787.40 572.70 L 785.60 574.20 L 783.40 575.10 L 781.00 575.40 L 778.60 575.10 L 776.40 574.20 L 774.60 572.70 L 773.10 570.90 L 772.20 568.70 L 771.90 566.30 L 772.20 563.90 L 773.10 561.70 L 774.60 559.90 L 776.40 558.40 L 778.60 557.50 L 781.00 557.20 L 783.40 557.50 L 785.60 558.40 L 787.40 559.90 L 788.90 561.70 L 789.80 563.90 L 790.10 566.30 Z" fill="#63a6f9" fill-rule="nonzero" node-id="210" stroke="none" target-height="18.200012" target-width="18.199951" target-x="771.9" target-y="557.2"></path><g node-id="280"><path d="M 223.30 907.10 L 107.30 907.10 L 107.30 786.30 L 223.30 786.30 L 223.30 907.10 Z M 206.00 890.10 L 206.00 803.30 L 124.50 803.30 L 124.50 890.10 L 206.00 890.10 Z M 127.40 846.10 L 136.10 843.70 L 143.90 841.00 L 151.00 838.00 L 146.40 833.60 L 142.10 828.80 L 138.30 831.10 L 133.80 833.20 L 128.40 835.20 L 128.40 820.50 L 131.90 818.40 L 135.10 816.10 L 137.80 813.50 L 140.10 810.50 L 142.10 807.30 L 198.50 807.30 L 197.20 812.10 L 195.40 816.80 L 193.20 821.20 L 190.60 825.60 L 187.40 829.80 L 183.80 833.90 L 179.60 837.90 L 186.60 840.90 L 194.50 843.60 L 203.20 846.00 L 203.20 861.60 L 194.40 859.30 L 186.30 856.80 L 178.80 854.00 L 171.80 850.90 L 165.30 847.60 L 154.50 852.80 L 185.50 857.60 L 185.50 870.50 L 147.90 864.70 L 147.90 855.50 L 138.00 858.70 L 127.50 861.50 L 127.50 846.10 Z M 134.70 867.10 L 195.90 876.00 L 195.90 889.70 L 134.70 880.80 L 134.70 867.10 Z M 165.30 830.70 L 169.00 828.00 L 175.60 821.80 L 155.00 821.80 L 158.10 825.20 L 161.50 828.20 L 165.30 830.70 Z" fill="url(#SVGID_00000146496662532750611500000012133588795536603043_)" fill-rule="nonzero" group-id="2" node-id="214" stroke="none" target-height="120.79999" target-width="116" target-x="107.3" target-y="786.3"></path><path d="M 327.10 866.30 L 271.60 866.30 L 270.40 875.00 L 268.80 883.60 L 266.60 892.00 L 264.10 900.30 L 261.00 908.40 L 240.00 908.40 L 243.90 900.50 L 247.10 892.90 L 249.60 885.60 L 251.40 878.40 L 252.70 871.20 L 253.70 863.20 L 254.40 854.40 L 254.60 844.70 L 254.60 788.20 L 272.70 788.20 L 272.70 813.60 L 307.70 813.60 L 307.70 784.30 L 325.80 784.30 L 325.80 813.60 L 364.30 813.60 L 364.30 831.30 L 272.70 831.30 L 272.70 848.50 L 345.20 848.50 L 345.20 908.40 L 327.10 908.40 L 327.10 866.30 Z" fill="url(#SVGID_00000000217660504177810930000005425116588877010362_)" fill-rule="nonzero" group-id="2" node-id="216" stroke="none" target-height="124.10004" target-width="124.29999" target-x="240" target-y="784.3"></path><path d="M 389.80 874.50 L 391.20 866.30 L 392.30 857.30 L 393.00 847.70 L 393.20 822.40 L 381.80 822.40 L 381.80 804.60 L 393.20 804.60 L 393.20 783.60 L 411.00 783.60 L 411.00 804.60 L 440.00 804.60 L 440.00 908.40 L 411.30 908.40 L 411.30 891.30 L 422.80 891.30 L 422.80 822.50 L 410.20 822.50 L 410.00 847.30 L 409.40 856.70 L 408.40 865.70 L 407.00 874.30 L 405.20 882.90 L 402.80 891.40 L 400.00 899.90 L 396.60 908.40 L 377.10 908.40 L 380.70 901.30 L 383.70 894.40 L 386.20 887.60 L 388.20 881.00 L 389.80 874.50 Z M 449.50 795.60 L 499.40 795.60 L 499.40 904.00 L 449.50 904.00 L 449.50 795.60 Z M 482.50 886.40 L 482.50 813.20 L 466.30 813.20 L 466.30 886.40 L 482.50 886.40 Z" fill="url(#SVGID_00000072977108289157155070000001558353445794883514_)" fill-rule="nonzero" group-id="2" node-id="218" stroke="none" target-height="124.80005" target-width="122.29999" target-x="377.1" target-y="783.6"></path><path d="M 515.00 887.90 L 547.00 886.10 L 547.00 879.00 L 514.40 879.00 L 526.30 854.60 L 516.80 854.60 L 516.80 839.80 L 533.40 839.80 L 535.70 835.00 L 553.70 835.00 L 551.40 839.80 L 588.00 839.80 L 588.00 854.60 L 544.30 854.60 L 539.40 864.70 L 547.10 864.70 L 547.10 858.10 L 564.70 858.10 L 564.70 864.70 L 588.00 864.70 L 588.00 879.00 L 564.50 879.00 L 564.50 885.00 L 584.40 883.90 L 584.40 890.20 L 590.50 887.20 L 596.20 883.80 L 601.50 879.90 L 598.90 874.70 L 596.60 869.00 L 594.60 862.80 L 593.10 856.20 L 591.80 848.90 L 591.10 841.00 L 590.70 832.40 L 515.00 832.40 L 515.00 815.70 L 544.80 815.70 L 544.80 806.20 L 520.50 806.20 L 520.50 789.70 L 544.80 789.70 L 544.80 783.50 L 562.20 783.50 L 562.20 789.70 L 583.60 789.70 L 583.60 806.20 L 562.20 806.20 L 562.20 815.70 L 590.60 815.70 L 590.60 783.60 L 608.00 783.60 L 608.00 815.70 L 638.40 815.70 L 638.40 832.40 L 607.80 832.40 L 608.20 840.80 L 609.00 848.10 L 610.10 854.50 L 611.50 859.90 L 613.10 864.60 L 616.10 859.20 L 618.70 853.60 L 620.90 847.70 L 622.60 841.40 L 638.40 841.40 L 636.60 848.60 L 634.40 855.40 L 631.90 861.70 L 629.00 867.70 L 625.90 873.40 L 622.40 878.70 L 626.00 882.00 L 630.00 885.00 L 634.40 887.70 L 639.10 890.10 L 639.10 909.60 L 633.50 907.70 L 628.30 905.40 L 623.60 902.80 L 619.10 899.90 L 615.10 896.70 L 611.30 893.10 L 606.00 897.00 L 600.20 900.60 L 594.00 903.90 L 587.30 906.90 L 580.00 909.60 L 580.00 898.80 L 564.50 899.60 L 564.50 908.20 L 547.00 908.20 L 547.00 900.50 L 515.00 902.30 L 515.00 887.90 Z M 628.60 786.50 L 636.30 810.40 L 619.60 810.40 L 611.90 786.50 L 628.60 786.50 Z" fill="url(#SVGID_00000142868321218532599430000017062601677049024946_)" fill-rule="nonzero" group-id="2" node-id="220" stroke="none" target-height="126.099976" target-width="124.69995" target-x="514.4" target-y="783.5"></path><path d="M 736.80 892.10 L 732.00 888.30 L 727.70 884.30 L 723.70 879.90 L 720.00 875.30 L 716.70 870.40 L 713.80 865.20 L 710.90 870.40 L 707.60 875.30 L 704.00 879.90 L 700.00 884.30 L 695.60 888.30 L 690.80 892.10 L 686.00 895.40 L 680.60 898.50 L 674.50 901.60 L 667.80 904.50 L 660.20 907.20 L 651.90 909.80 L 651.90 890.90 L 659.50 888.10 L 666.20 885.20 L 672.00 882.30 L 677.10 879.30 L 681.50 876.20 L 685.70 872.70 L 689.60 868.70 L 693.20 864.20 L 696.50 859.20 L 699.50 853.60 L 651.00 853.60 L 651.00 836.00 L 704.60 836.00 L 704.60 813.40 L 677.60 813.40 L 674.80 822.70 L 672.30 829.30 L 652.70 829.30 L 656.30 820.10 L 659.30 811.10 L 661.70 802.30 L 663.40 793.70 L 664.60 785.30 L 682.30 785.30 L 681.10 796.00 L 704.60 796.00 L 704.60 782.30 L 723.30 782.30 L 723.30 796.00 L 770.00 796.00 L 770.00 813.40 L 723.20 813.40 L 723.20 836.00 L 776.70 836.00 L 776.70 853.60 L 728.20 853.60 L 731.30 859.20 L 734.60 864.20 L 738.20 868.60 L 742.10 872.60 L 746.20 876.20 L 750.60 879.30 L 755.60 882.30 L 761.50 885.20 L 768.20 888.10 L 775.80 890.90 L 775.80 909.80 L 767.40 907.20 L 759.90 904.50 L 753.10 901.60 L 747.00 898.50 L 741.60 895.40 L 736.80 892.10 Z" fill="url(#SVGID_00000004514736256508403760000013149044899524139936_)" fill-rule="nonzero" group-id="2" node-id="222" stroke="none" target-height="127.5" target-width="125.70001" target-x="651" target-y="782.3"></path><path d="M 823.00 881.90 L 821.10 886.20 L 818.80 890.10 L 816.30 893.70 L 813.30 896.90 L 810.00 899.90 L 806.40 902.50 L 802.50 904.80 L 798.40 906.80 L 793.90 908.40 L 789.00 909.70 L 789.00 891.00 L 793.30 889.90 L 797.20 888.30 L 800.60 886.20 L 803.70 883.50 L 806.40 880.40 L 808.60 876.90 L 810.40 873.20 L 811.60 869.10 L 812.40 864.70 L 812.70 859.90 L 812.70 814.60 L 826.70 814.60 L 826.60 864.30 L 830.40 866.90 L 834.00 869.80 L 837.20 873.10 L 840.30 876.60 L 843.10 880.60 L 846.10 885.80 L 848.60 891.20 L 850.60 896.90 L 852.00 903.00 L 859.30 892.70 L 865.40 883.40 L 870.40 875.10 L 874.40 867.50 L 865.60 846.00 L 848.30 846.00 L 848.30 868.50 L 832.40 868.50 L 832.40 804.30 L 806.90 804.30 L 806.90 868.50 L 791.00 868.50 L 791.00 787.00 L 848.30 787.00 L 848.30 844.90 L 851.80 834.50 L 855.00 823.30 L 858.10 811.10 L 860.90 798.00 L 863.40 783.90 L 881.80 783.90 L 879.50 798.40 L 913.90 798.40 L 913.90 816.00 L 908.00 816.00 L 906.20 828.20 L 904.10 839.30 L 901.70 849.30 L 899.00 858.50 L 896.20 866.70 L 915.50 908.40 L 896.20 908.40 L 885.60 884.80 L 876.80 899.50 L 870.90 908.40 L 835.50 908.40 L 834.40 902.70 L 832.90 897.60 L 831.00 893.10 L 828.70 888.90 L 826.10 885.20 L 823.00 881.90 Z M 884.30 847.60 L 886.80 838.20 L 889.00 827.70 L 891.00 815.90 L 875.80 815.90 L 874.60 821.10 L 884.30 847.60 Z" fill="url(#SVGID_00000016771888697224620560000010653893427920040836_)" fill-rule="nonzero" group-id="2" node-id="224" stroke="none" target-height="125.79999" target-width="126.5" target-x="789" target-y="783.9"></path></g><path d="M 14.50 421.10 L 20.40 404.60 L 23.50 396.70 L 32.00 377.50 L 37.30 366.90 L 43.00 356.30 L 49.50 345.70 L 54.10 338.80 L 63.90 325.80 L 69.30 319.80 L 74.80 314.40 L 80.50 309.60 L 85.10 306.30 L 89.70 303.40 L 94.30 301.10 L 99.10 299.10 L 104.00 297.70 L 109.10 296.80 L 114.20 296.40 L 119.50 296.70 L 123.60 297.30 L 127.90 298.40 L 132.30 299.90 L 136.90 302.00 L 141.60 304.50 L 147.10 308.10 L 152.80 312.60 L 158.80 318.10 L 165.30 324.90 L 171.00 331.60 L 177.10 339.70 L 183.50 349.00 L 190.30 359.90 L 196.40 370.50 L 202.80 382.60 L 209.50 396.30 L 216.50 411.80 L 14.50 421.10 Z" fill="url(#SVGID_00000128481643792877855470000017919215329722382006_)" fill-rule="nonzero" node-id="227" stroke="none" target-height="124.70001" target-width="202" target-x="14.5" target-y="296.4"></path><path d="M 802.90 538.90 L 810.90 518.40 L 818.40 502.60 L 823.00 494.10 L 828.00 485.80 L 833.40 477.70 L 837.40 472.50 L 845.70 463.40 L 850.20 459.30 L 854.90 456.00 L 859.60 453.20 L 863.30 451.60 L 867.10 450.40 L 870.90 449.70 L 874.80 449.40 L 878.70 449.60 L 882.70 450.40 L 886.90 451.80 L 891.30 453.90 L 895.30 456.40 L 899.60 459.70 L 904.00 463.80 L 908.80 469.00 L 913.00 474.20 L 917.50 480.40 L 922.20 487.90 L 927.10 496.60 L 931.60 505.10 L 941.00 526.10 L 946.10 538.90 L 802.90 538.90 Z" fill="url(#SVGID_00000146493886936088224560000009110272432337681541_)" fill-rule="nonzero" node-id="229" stroke="none" target-height="89.50003" target-width="143.19995" target-x="802.9" target-y="449.4"></path><g node-id="281"><path d="M 422.90 277.90 L 433.70 259.40 L 446.70 239.40 L 464.30 214.90 L 474.60 201.80 L 486.20 188.00 L 494.30 178.90 L 511.90 160.60 L 521.30 151.80 L 531.10 143.20 L 541.30 134.90 L 551.80 127.00 L 562.70 119.70 L 573.90 112.90 L 582.50 108.10 L 591.30 103.80 L 600.20 100.00 L 609.30 96.50 L 618.60 93.60 L 628.00 91.20 L 637.60 89.30 L 647.30 88.00 L 655.10 87.30 L 663.10 87.10 L 671.10 87.40 L 679.20 88.00 L 687.50 89.20 L 695.60 90.70 L 703.90 92.70 L 712.30 95.30 L 720.80 98.50 L 729.60 102.20 L 737.90 106.20 L 746.40 110.90 L 755.10 116.20 L 764.00 122.30 L 773.20 129.10 L 781.70 136.00 L 790.40 143.70 L 799.30 152.20 L 808.50 161.50 L 817.90 171.90 L 826.60 182.00 L 835.50 193.10 L 844.60 205.20 L 853.90 218.40 L 863.50 232.60 L 872.30 246.40 L 881.30 261.40 L 890.50 277.50 L 899.90 294.80 L 909.50 313.30 L 422.90 277.90 Z" fill="url(#SVGID_00000115511053584433972600000007355025594677293496_)" fill-rule="nonzero" group-id="3" node-id="233" stroke="none" target-height="226.19998" target-width="486.6" target-x="422.9" target-y="87.1"></path><path d="M 891.60 279.50 L 898.90 276.60 L 911.00 272.90 L 918.90 271.00 L 927.20 269.50 L 936.40 268.40 L 949.10 268.00 L 955.70 268.40 L 962.30 269.30 L 968.90 270.70 L 975.60 272.60 L 980.40 274.50 L 985.10 276.70 L 994.50 282.50 L 998.80 285.90 L 1003.00 289.90 L 1007.10 294.40 L 1011.00 299.60 L 1014.50 304.90 L 1017.80 310.90 L 1021.00 317.70 L 1023.90 325.30 L 909.50 313.30 L 891.60 279.50 Z" fill="url(#SVGID_00000080928094842476077120000003973181004150226866_)" fill-rule="nonzero" group-id="3" node-id="235" stroke="none" target-height="57.299988" target-width="132.30005" target-x="891.6" target-y="268"></path></g><g node-id="282"><path d="M 353.00 231.80 L 322.50 187.50 L 327.70 177.70 L 350.50 178.90 L 353.00 231.80 Z" fill="#63a6f9" fill-rule="nonzero" group-id="4" node-id="240" stroke="none" target-height="54.100006" target-width="30.5" target-x="322.5" target-y="177.7"></path><path d="M 341.70 238.50 L 299.40 230.70 L 296.80 222.20 L 310.30 210.00 L 341.70 238.50 Z" fill="#63a6f9" fill-rule="nonzero" group-id="4" node-id="242" stroke="none" target-height="28.5" target-width="44.900024" target-x="296.8" target-y="210"></path><path d="M 360.00 224.80 L 363.20 186.80 L 370.40 183.70 L 382.30 194.60 L 360.00 224.80 Z" fill="#63a6f9" fill-rule="nonzero" group-id="4" node-id="244" stroke="none" target-height="41.100006" target-width="22.299988" target-x="360" target-y="183.7"></path></g><path d="M 966.80 865.60 L 974.70 887.40 L 996.50 895.30 L 974.70 903.10 L 966.80 924.90 L 959.00 903.00 L 937.30 895.20 L 959.00 887.30 L 966.80 865.60 Z" fill="#8fd0f8" fill-rule="nonzero" node-id="247" stroke="none" target-height="59.30005" target-width="59.200012" target-x="937.3" target-y="865.6"></path><path d="M 61.40 731.30 L 67.50 748.10 L 84.30 754.20 L 67.50 760.20 L 61.40 777.00 L 55.30 760.20 L 38.50 754.20 L 55.30 748.10 L 61.40 731.30 Z" fill="#8fd0f8" fill-rule="nonzero" node-id="249" stroke="none" target-height="45.700012" target-width="45.800003" target-x="38.5" target-y="731.3"></path><g node-id="283"><g node-id="285"><path d="M 686.40 290.30 L 516.40 290.00 L 491.70 361.60 L 496.90 413.50 L 470.10 440.10 L 480.50 409.30 L 460.20 358.00 L 481.60 290.20 L 481.50 289.70 L 481.00 289.40 L 351.20 290.20 L 345.00 290.60 L 339.10 291.50 L 333.30 293.00 L 327.70 295.10 L 322.40 297.70 L 317.40 300.70 L 312.80 304.30 L 308.60 308.20 L 304.70 312.50 L 301.40 317.30 L 298.60 322.30 L 296.30 327.60 L 294.10 336.10 L 293.30 345.20 L 294.50 625.80 L 295.30 635.10 L 297.50 643.90 L 299.70 649.40 L 302.50 654.70 L 305.70 659.60 L 309.50 664.10 L 313.60 668.30 L 318.20 672.00 L 323.10 675.20 L 328.40 678.00 L 333.90 680.20 L 342.70 682.30 L 352.00 683.10 L 690.80 682.90 L 699.70 681.50 L 703.90 680.20 L 709.40 678.10 L 714.50 675.40 L 719.30 672.20 L 723.80 668.60 L 727.80 664.50 L 731.50 660.10 L 734.60 655.20 L 737.30 650.10 L 739.40 644.70 L 740.70 640.40 L 742.10 631.60 L 742.10 341.80 L 740.70 332.90 L 739.50 328.70 L 737.40 323.20 L 734.70 318.10 L 731.60 313.30 L 727.90 308.80 L 723.90 304.80 L 719.40 301.10 L 714.60 298.00 L 709.50 295.30 L 704.10 293.20 L 695.50 291.00 L 686.40 290.30 Z M 714.40 598.00 L 641.10 504.40 L 636.90 501.10 L 633.70 499.60 L 630.40 498.70 L 627.00 498.30 L 614.20 498.30 L 616.80 500.50 L 613.90 502.00 L 611.00 504.00 L 608.30 506.40 L 529.80 585.00 L 446.20 478.70 L 443.90 476.60 L 441.50 475.10 L 438.90 473.90 L 436.20 473.10 L 433.40 472.80 L 418.30 472.90 L 423.50 474.90 L 420.60 476.50 L 417.70 478.60 L 414.70 481.20 L 323.00 593.40 L 323.90 347.40 L 324.20 343.20 L 325.00 339.40 L 326.30 335.90 L 328.10 332.50 L 330.20 329.50 L 332.80 326.80 L 335.70 324.50 L 338.90 322.50 L 342.40 320.90 L 346.10 319.80 L 350.10 319.10 L 354.30 318.80 L 444.10 318.30 L 444.50 318.50 L 444.70 319.00 L 440.60 364.20 L 465.50 406.20 L 460.60 405.80 L 448.00 456.60 L 459.90 456.60 L 509.50 419.90 L 513.60 360.10 L 536.30 318.50 L 686.40 318.40 L 690.20 318.70 L 693.80 319.40 L 697.30 320.60 L 700.50 322.30 L 703.50 324.30 L 706.20 326.60 L 708.60 329.30 L 710.60 332.30 L 712.30 335.60 L 713.50 339.00 L 714.20 342.60 L 714.50 346.50 L 714.50 598.00 Z" fill="url(#SVGID_00000141452051250592925940000003962840010299921562_)" fill-rule="nonzero" group-id="5,7" node-id="255" stroke="none" target-height="393.69998" target-width="448.8" target-x="293.3" target-y="289.4"></path><path d="M 629.30 362.80 L 625.30 360.80 L 621.20 359.20 L 617.00 358.00 L 612.80 357.20 L 608.50 356.90 L 594.70 356.90 L 597.90 357.90 L 593.50 359.10 L 589.30 360.70 L 585.20 362.80 L 580.80 365.70 L 576.90 369.00 L 573.40 372.70 L 570.40 376.80 L 567.80 381.20 L 565.80 385.80 L 564.30 390.70 L 563.40 395.70 L 563.10 401.00 L 563.40 406.30 L 564.30 411.30 L 565.80 416.20 L 567.80 420.80 L 570.30 425.20 L 573.40 429.30 L 576.90 433.00 L 580.80 436.30 L 585.20 439.20 L 588.70 441.00 L 595.80 443.60 L 594.80 445.10 L 608.80 445.10 L 615.80 444.30 L 619.30 443.50 L 626.00 440.90 L 629.30 439.20 L 633.70 436.30 L 637.60 433.00 L 641.10 429.30 L 644.20 425.20 L 646.70 420.80 L 648.70 416.20 L 650.20 411.30 L 651.10 406.30 L 651.40 401.00 L 651.10 395.70 L 650.20 390.70 L 648.70 385.80 L 646.70 381.20 L 644.20 376.80 L 641.10 372.70 L 637.60 369.00 L 633.70 365.70 L 629.30 362.80 Z" fill="url(#SVGID_00000124876203763319338390000007004458688113141128_)" fill-rule="nonzero" group-id="5,7" node-id="257" stroke="none" target-height="88.20001" target-width="88.30005" target-x="563.1" target-y="356.9"></path><path d="M 447.70 458.10 L 448.10 456.60 L 447.70 456.60 Z" fill="url(#SVGID_00000153703965753760523250000018398503448779632301_)" fill-rule="nonzero" group-id="5,7" node-id="259" stroke="none" target-height="1.5" target-width="0.3999939" target-x="447.7" target-y="456.6"></path></g><g node-id="286"><g node-id="287"><path d="M 674.10 290.30 L 504.10 290.00 L 479.40 361.60 L 484.60 413.50 L 457.80 440.10 L 468.20 409.30 L 448.00 358.00 L 469.40 290.20 L 469.30 289.70 L 468.80 289.40 L 339.00 290.20 L 332.80 290.60 L 326.90 291.50 L 321.10 293.00 L 315.50 295.10 L 310.20 297.70 L 305.20 300.70 L 300.60 304.30 L 296.40 308.20 L 292.50 312.50 L 289.20 317.30 L 286.40 322.30 L 284.10 327.60 L 281.90 336.10 L 281.10 345.20 L 282.30 625.80 L 283.10 635.10 L 285.30 643.90 L 287.50 649.40 L 290.30 654.70 L 293.50 659.60 L 297.30 664.10 L 301.40 668.30 L 306.00 672.00 L 310.90 675.20 L 316.20 678.00 L 321.70 680.20 L 330.50 682.30 L 339.80 683.10 L 678.60 682.90 L 687.50 681.50 L 691.70 680.20 L 697.20 678.10 L 702.30 675.40 L 707.10 672.20 L 711.60 668.60 L 715.60 664.50 L 719.30 660.10 L 722.40 655.20 L 725.10 650.10 L 727.20 644.70 L 728.50 640.40 L 729.90 631.60 L 729.90 341.80 L 728.50 332.90 L 727.30 328.70 L 725.10 323.20 L 722.50 318.10 L 719.30 313.30 L 715.70 308.80 L 711.70 304.80 L 707.20 301.10 L 702.40 298.00 L 697.30 295.30 L 691.80 293.20 L 683.20 291.00 L 674.10 290.30 Z M 702.20 598.00 L 630.30 505.90 L 627.70 503.30 L 624.90 501.30 L 621.90 499.80 L 618.70 498.80 L 615.40 498.40 L 612.10 498.40 L 608.70 499.00 L 605.30 500.10 L 602.20 501.70 L 599.10 503.80 L 596.10 506.40 L 517.50 585.00 L 436.10 481.20 L 433.80 478.50 L 431.40 476.50 L 428.80 474.90 L 426.10 473.70 L 423.30 473.00 L 420.40 472.80 L 417.40 473.00 L 414.20 473.70 L 411.30 474.80 L 408.40 476.40 L 405.40 478.50 L 402.40 481.20 L 310.70 593.50 L 311.60 347.50 L 311.90 343.30 L 312.70 339.50 L 314.00 336.00 L 315.80 332.60 L 317.90 329.60 L 320.50 326.90 L 323.40 324.60 L 326.60 322.60 L 330.10 321.00 L 333.80 319.90 L 337.80 319.20 L 342.00 318.90 L 432.20 318.60 L 428.30 364.30 L 456.00 411.00 L 447.60 456.70 L 497.20 420.00 L 501.30 360.20 L 524.00 318.60 L 674.10 318.50 L 677.90 318.80 L 681.50 319.50 L 685.00 320.70 L 688.20 322.40 L 691.20 324.40 L 693.90 326.70 L 696.30 329.40 L 698.30 332.40 L 700.00 335.70 L 701.20 339.10 L 701.90 342.70 L 702.20 346.60 L 702.20 598.00 Z" fill="url(#SVGID_00000067218818484699826210000000900558195021481137_)" fill-rule="nonzero" group-id="5,8,9" node-id="266" stroke="none" target-height="393.69998" target-width="448.80002" target-x="281.1" target-y="289.4"></path><path d="M 550.90 401.00 L 551.20 406.30 L 552.10 411.30 L 553.60 416.20 L 555.60 420.80 L 558.10 425.20 L 561.20 429.30 L 564.70 433.00 L 568.60 436.30 L 573.00 439.20 L 577.70 441.60 L 582.50 443.30 L 587.50 444.50 L 592.60 445.10 L 597.60 445.10 L 602.70 444.50 L 607.60 443.30 L 612.40 441.60 L 617.10 439.20 L 621.50 436.30 L 625.40 433.00 L 628.90 429.30 L 632.00 425.20 L 634.50 420.80 L 636.50 416.20 L 638.00 411.30 L 638.90 406.30 L 639.20 401.00 L 638.90 395.70 L 638.00 390.70 L 636.50 385.80 L 634.50 381.20 L 632.00 376.80 L 628.90 372.70 L 625.40 369.00 L 621.50 365.70 L 617.10 362.80 L 612.40 360.40 L 607.60 358.70 L 602.60 357.50 L 597.50 356.90 L 592.50 356.90 L 587.40 357.50 L 582.50 358.70 L 577.70 360.40 L 573.00 362.80 L 568.60 365.70 L 564.70 369.00 L 561.20 372.70 L 558.10 376.80 L 555.60 381.20 L 553.60 385.80 L 552.10 390.70 L 551.20 395.70 L 550.90 401.00 Z" fill="url(#SVGID_00000079479117665244907390000001821681188062293923_)" fill-rule="nonzero" group-id="5,8,9" node-id="268" stroke="none" target-height="88.20001" target-width="88.29999" target-x="550.9" target-y="356.9"></path></g></g></g><g node-id="284"><path d="M 866.50 453.50 L 838.00 453.30 L 837.00 452.90 L 835.50 451.40 L 834.90 449.20 L 835.50 447.00 L 837.00 445.50 L 838.00 445.10 L 867.70 445.10 L 868.70 445.50 L 870.20 447.00 L 870.80 449.20 L 870.50 450.80 L 869.60 452.20 L 867.70 453.30 L 866.50 453.50 Z" fill="#63a6f9" fill-rule="nonzero" group-id="6" node-id="275" stroke="none" target-height="8.399994" target-width="35.899963" target-x="834.9" target-y="445.1"></path><path d="M 848.30 462.60 L 848.50 434.40 L 848.90 433.30 L 850.50 431.70 L 852.80 431.10 L 854.00 431.30 L 856.00 432.40 L 857.10 434.40 L 857.30 435.60 L 857.10 463.80 L 856.70 464.90 L 855.10 466.50 L 852.80 467.10 L 851.60 466.90 L 849.60 465.80 L 848.50 463.80 L 848.30 462.60 Z" fill="#63a6f9" fill-rule="nonzero" group-id="6" node-id="277" stroke="none" target-height="36" target-width="9" target-x="848.3" target-y="431.1"></path></g></svg>